<?xml version="1.0" encoding="utf-8"?><svg xmlns="http://www.w3.org/2000/svg" viewBox="0 0 49.93 66.92"><defs><style>.cls-1,.cls-3{fill:none;stroke:#ffffff;stroke-linecap:round;stroke-linejoin:round;}.cls-1{stroke-width:2.83px;}.cls-2{fill:#ffffff;}.cls-3{stroke-width:0.99px;}</style></defs><g id="Layer_2" data-name="Layer 2"><g id="Layer_1-2" data-name="Layer 1"><polygon class="cls-1" points="25.29 1.42 32.47 15.96 48.51 18.29 36.9 29.61 39.64 45.59 25.29 38.04 10.94 45.59 13.68 29.61 2.07 18.29 18.11 15.96 25.29 1.42"/><circle class="cls-1" cx="25.29" cy="54.84" r="7.33"/><path class="cls-1" d="M8.62,47.51s2.33,18,17,18S42,47.51,42,47.51"/><path class="cls-1" d="M18,28.35S23.12,30,25.29,30s7.33-1.67,7.33-1.67"/><rect class="cls-2" x="17.96" y="21.33" width="3.34" height="3.34" rx="1.67" ry="1.67"/><rect class="cls-2" x="28.96" y="21.33" width="3.34" height="3.34" rx="1.67" ry="1.67"/><line class="cls-3" x1="5.75" y1="30.18" x2="0.5" y2="45.59"/><line class="cls-3" x1="44.5" y1="30.18" x2="48.51" y2="45.59"/></g></g></svg>